<?xml version="1.0" encoding="UTF-8"?>
<!--
  ACE Shot Diagrams - Pool Table SVG Template v008 - LABELED VERSION
  9-ft Regulation Table (100" x 50" playing surface)
  Color scheme: Tournament Blue (Simonis 860) #50a6c2

  ORIENTATION (Horizontal/Landscape):
  - Long axis = X (100 units)
  - Short axis = Y (50 units)
  - HEAD rail = LEFT (x=0) - breaking end
  - FOOT rail = RIGHT (x=100) - racking end
  - LONG rails = TOP (y=0) and BOTTOM (y=50)
  - Side pockets on LONG rails at x=50

  POCKET CONSTRUCTION (v006):
  - Layer 3: Dark pocket voids (drop holes)
  - Layer 4: Slate with SCALLOPED CUTOUTS (boolean subtraction)
  - Layer 5: Cushions frame pocket openings

  Scale: 1 unit = 1 inch
  viewBox includes 8-unit rail width on each side
-->
<svg
  xmlns="http://www.w3.org/2000/svg"
  viewBox="-8 -8 116 66"
  width="100%"
  height="100%"
  role="img"
  aria-label="Pool table diagram for shot planning"
>
  <title>Pool Table - Top Down View</title>
  <desc>A detailed SVG diagram of a 9-foot pool table. HEAD (breaking end) at left, FOOT (racking end) at right.</desc>

  <!-- ============================================ -->
  <!-- DEFINITIONS (Gradients, Patterns, Markers)  -->
  <!-- ============================================ -->
  <defs>
    <!-- Wood grain pattern for rails -->
    <pattern id="wood-grain" patternUnits="userSpaceOnUse" width="4" height="4">
      <rect width="4" height="4" fill="#5a3825"/>
      <path d="M0 2 Q1 1.5 2 2 T4 2" stroke="#4a2c2a" stroke-width="0.3" fill="none" opacity="0.5"/>
      <path d="M0 3.5 Q1 3 2 3.5 T4 3.5" stroke="#6b4332" stroke-width="0.2" fill="none" opacity="0.3"/>
    </pattern>

    <!-- Cloth texture pattern - Tournament Blue (Simonis 860) -->
    <pattern id="cloth-texture" patternUnits="userSpaceOnUse" width="2" height="2">
      <rect width="2" height="2" fill="#50a6c2"/>
      <circle cx="0.5" cy="0.5" r="0.1" fill="#5ab0cc" opacity="0.3"/>
      <circle cx="1.5" cy="1.5" r="0.1" fill="#4596b2" opacity="0.3"/>
    </pattern>

    <!-- Arrow marker for shot paths -->
    <marker id="arrow" markerWidth="6" markerHeight="6" refX="5" refY="3" orient="auto">
      <path d="M0,0 L0,6 L6,3 z" fill="#ffffff"/>
    </marker>

    <marker id="arrow-yellow" markerWidth="6" markerHeight="6" refX="5" refY="3" orient="auto">
      <path d="M0,0 L0,6 L6,3 z" fill="#ffd700"/>
    </marker>

    <!-- Pocket drop shadow -->
    <filter id="pocket-shadow" x="-50%" y="-50%" width="200%" height="200%">
      <feDropShadow dx="0" dy="0.5" stdDeviation="0.5" flood-color="#000" flood-opacity="0.5"/>
    </filter>

    <!-- Ball shadow -->
    <filter id="ball-shadow" x="-50%" y="-50%" width="200%" height="200%">
      <feDropShadow dx="0.2" dy="0.2" stdDeviation="0.3" flood-color="#000" flood-opacity="0.4"/>
    </filter>

    <!-- Ball gradient for 3D effect -->
    <radialGradient id="ball-highlight" cx="35%" cy="35%" r="60%">
      <stop offset="0%" stop-color="white" stop-opacity="0.6"/>
      <stop offset="100%" stop-color="white" stop-opacity="0"/>
    </radialGradient>

    <!-- Spot glow -->
    <filter id="spot-glow" x="-100%" y="-100%" width="300%" height="300%">
      <feGaussianBlur stdDeviation="0.3" result="blur"/>
      <feMerge>
        <feMergeNode in="blur"/>
        <feMergeNode in="SourceGraphic"/>
      </feMerge>
    </filter>

    <!-- POCKET GRADIENTS - darker toward the drop, lighter toward table opening -->

    <!-- Corner pocket gradients (hole in corner, opening faces table at 45°) -->
    <!-- Top-left: opening faces toward (+x, +y), so gradient dark at top-left -->
    <radialGradient id="pocket-gradient-tl" cx="20%" cy="20%" r="80%">
      <stop offset="0%" stop-color="#000000"/>
      <stop offset="60%" stop-color="#0a0a0a"/>
      <stop offset="100%" stop-color="#1a1a1a"/>
    </radialGradient>

    <!-- Top-right: opening faces toward (-x, +y), so gradient dark at top-right -->
    <radialGradient id="pocket-gradient-tr" cx="80%" cy="20%" r="80%">
      <stop offset="0%" stop-color="#000000"/>
      <stop offset="60%" stop-color="#0a0a0a"/>
      <stop offset="100%" stop-color="#1a1a1a"/>
    </radialGradient>

    <!-- Bottom-left: opening faces toward (+x, -y), so gradient dark at bottom-left -->
    <radialGradient id="pocket-gradient-bl" cx="20%" cy="80%" r="80%">
      <stop offset="0%" stop-color="#000000"/>
      <stop offset="60%" stop-color="#0a0a0a"/>
      <stop offset="100%" stop-color="#1a1a1a"/>
    </radialGradient>

    <!-- Bottom-right: opening faces toward (-x, -y), so gradient dark at bottom-right -->
    <radialGradient id="pocket-gradient-br" cx="80%" cy="80%" r="80%">
      <stop offset="0%" stop-color="#000000"/>
      <stop offset="60%" stop-color="#0a0a0a"/>
      <stop offset="100%" stop-color="#1a1a1a"/>
    </radialGradient>

    <!-- Side pocket gradients (hole behind rail, opening faces into table) -->
    <!-- Top side: opening faces down (+y), so gradient dark at top -->
    <radialGradient id="pocket-gradient-side-top" cx="50%" cy="10%" r="90%">
      <stop offset="0%" stop-color="#000000"/>
      <stop offset="60%" stop-color="#0a0a0a"/>
      <stop offset="100%" stop-color="#1a1a1a"/>
    </radialGradient>

    <!-- Bottom side: opening faces up (-y), so gradient dark at bottom -->
    <radialGradient id="pocket-gradient-side-bottom" cx="50%" cy="90%" r="90%">
      <stop offset="0%" stop-color="#000000"/>
      <stop offset="60%" stop-color="#0a0a0a"/>
      <stop offset="100%" stop-color="#1a1a1a"/>
    </radialGradient>

    <!-- Pocket liner/rim highlight -->
    <filter id="pocket-inner-shadow" x="-50%" y="-50%" width="200%" height="200%">
      <feGaussianBlur in="SourceAlpha" stdDeviation="0.5" result="blur"/>
      <feOffset dx="0" dy="0" result="offsetblur"/>
      <feFlood flood-color="#000000" flood-opacity="0.7"/>
      <feComposite in2="offsetblur" operator="in"/>
      <feMerge>
        <feMergeNode/>
        <feMergeNode in="SourceGraphic"/>
      </feMerge>
    </filter>

    <!-- Cue ball with crosshairs template -->
    <g id="cueball-template">
      <circle r="1.125" fill="#ffffff" filter="url(#ball-shadow)"/>
      <circle r="1.125" fill="url(#ball-highlight)"/>
      <line x1="-0.6" y1="0" x2="0.6" y2="0" stroke="#333" stroke-width="0.08"/>
      <line x1="0" y1="-0.6" x2="0" y2="0.6" stroke="#333" stroke-width="0.08"/>
      <circle r="0.15" fill="#ff0000" opacity="0.8"/>
    </g>
  </defs>

  <!-- ============================================ -->
  <!-- LAYER 1: OUTER FRAME / TABLE EDGE           -->
  <!-- ============================================ -->
  <g id="layer-outer-frame" class="table-frame">
    <rect
      x="-8" y="-8"
      width="116" height="66"
      rx="2" ry="2"
      fill="#3d2317"
      stroke="#2a1810"
      stroke-width="0.5"
    />
  </g>

  <!-- ============================================ -->
  <!-- LAYER 2: RAILS (Wood surface)               -->
  <!-- ============================================ -->
  <g id="layer-rails" class="table-rails">
    <!-- HEAD rail (LEFT - short rail) -->
    <rect x="-6" y="-6" width="6" height="62" fill="url(#wood-grain)"/>
    <!-- FOOT rail (RIGHT - short rail) -->
    <rect x="100" y="-6" width="6" height="62" fill="url(#wood-grain)"/>
    <!-- Top LONG rail -->
    <rect x="0" y="-6" width="100" height="6" fill="url(#wood-grain)"/>
    <!-- Bottom LONG rail -->
    <rect x="0" y="50" width="100" height="6" fill="url(#wood-grain)"/>

    <!-- Rail inner edge (decorative line) -->
    <rect x="-2" y="-2" width="104" height="54" fill="none" stroke="#2a1810" stroke-width="0.3"/>
  </g>

  <!-- ============================================ -->
  <!-- LAYER 3: POCKET VOIDS (Dark background)     -->
  <!-- ============================================ -->
  <!--
    This layer represents the dark void/abyss under the table
    where balls fall into pockets. It shows through the
    scalloped cutouts in the slate/cloth layer above.

    Balls are 2.25" diameter - pocket openings should be
    about 4.5-5" for corners, 5-5.5" for side pockets.
  -->
  <g id="layer-pocket-voids" class="pocket-voids">
    <!--
      Dark voids that show through the scalloped cutouts.
      Sized to back the slate cutouts with slight margin.
    -->
    <!-- Corner pocket drop holes (r=4 to back r=3.5 cutout) -->
    <circle cx="0" cy="0" r="4" fill="#050505"/>      <!-- Top-left -->
    <circle cx="100" cy="0" r="4" fill="#050505"/>    <!-- Top-right -->
    <circle cx="0" cy="50" r="4" fill="#050505"/>     <!-- Bottom-left -->
    <circle cx="100" cy="50" r="4" fill="#050505"/>   <!-- Bottom-right -->
    <!-- Side pocket drop holes - BCA spec: 4.875" to 5.625" mouth -->
    <ellipse cx="50" cy="0" rx="3" ry="2.5" fill="#050505"/>   <!-- Top side -->
    <ellipse cx="50" cy="50" rx="3" ry="2.5" fill="#050505"/>  <!-- Bottom side -->
  </g>

  <!-- ============================================ -->
  <!-- LAYER 4: SLATE/CLOTH (with scalloped cutouts) -->
  <!-- ============================================ -->
  <!--
    THE SLATE is the playing bed - a single piece (or 3 pieces)
    with SCALLOPED CUTOUTS routed/cut for the 6 pockets.
    The cloth covers the slate.

    This is a BOOLEAN SUBTRACTION:
    SLATE = RECTANGLE - 4_CORNER_SCALLOPS - 2_SIDE_SCALLOPS

    The path traces the entire perimeter, curving OUTWARD
    at each pocket location to create the scalloped edge.
  -->
  <g id="layer-slate-cloth" class="slate-cloth">
    <!--
      SLATE with SCALLOPED CUTOUTS at all 6 pocket locations.

      The path traces the GREEN CLOTH boundary. Where the path
      curves INWARD (toward pocket centers), the dark voids show through.

      CORNER POCKETS: Quarter-circle cutouts (r=4) at each corner
      - Top-left corner (0,0): path goes from (0,4) to (4,0)
      - Path curves toward (0,0) revealing corner void

      SIDE POCKETS: No slate scallop - void shows through rail gap
      - Side pocket openings are in the RAIL, not cut into playing surface
      - Void ellipses at (50,0) and (50,50) show between split cushions
    -->
    <path id="slate-surface"
      d="
        M 0,3.5
        A 3.5,3.5 0 0,0 3.5,0
        L 47,0
        L 47,0.3
        A 3,0.3 0 0,0 53,0.3
        L 53,0
        L 96.5,0
        A 3.5,3.5 0 0,0 100,3.5
        L 100,46.5
        A 3.5,3.5 0 0,0 96.5,50
        L 53,50
        L 53,49.7
        A 3,0.3 0 0,0 47,49.7
        L 47,50
        L 3.5,50
        A 3.5,3.5 0 0,0 0,46.5
        Z
      "
      fill="#50a6c2"
    />
    <!-- Subtle cloth texture overlay -->
    <path
      d="
        M 0,3.5
        A 3.5,3.5 0 0,0 3.5,0
        L 47,0
        L 47,0.3
        A 3,0.3 0 0,0 53,0.3
        L 53,0
        L 96.5,0
        A 3.5,3.5 0 0,0 100,3.5
        L 100,46.5
        A 3.5,3.5 0 0,0 96.5,50
        L 53,50
        L 53,49.7
        A 3,0.3 0 0,0 47,49.7
        L 47,50
        L 3.5,50
        A 3.5,3.5 0 0,0 0,46.5
        Z
      "
      fill="url(#cloth-texture)"
      opacity="0.1"
    />
  </g>

  <!-- ============================================ -->
  <!-- LAYER 5: CUSHIONS (Rubber on top of slate)  -->
  <!-- ============================================ -->
  <!--
    Cushions sit ON TOP of the slate/cloth.
    Their angled ends (JAWS) frame the pocket openings.
    Corner jaws angle at 142°, side jaws at 103°.
  -->
  <g id="layer-cushions" class="table-cushions">
    <!--
      Cushions sit ON TOP of the slate. Their ends (jaws) frame
      the pocket openings. Aligned to scallop geometry:
      - Corner scallops: r=3.5, so cushions start 3.5 units from corners
      - Side pockets: span x=47 to x=53
    -->

    <!-- HEAD cushion (LEFT - short rail) -->
    <polygon points="0,3.5 0,46.5 2,44.5 2,5.5" fill="#50a6c2" stroke="#ffffff" stroke-width="0.3"/>

    <!-- FOOT cushion (RIGHT - short rail) -->
    <polygon points="100,3.5 100,46.5 98,44.5 98,5.5" fill="#50a6c2" stroke="#ffffff" stroke-width="0.3"/>

    <!-- Top LONG rail cushions (split by side pocket at x=47 to 53) -->
    <polygon points="3.5,0 47,0 45,2 5.5,2" fill="#50a6c2" stroke="#ffffff" stroke-width="0.3"/>
    <polygon points="53,0 96.5,0 94.5,2 55,2" fill="#50a6c2" stroke="#ffffff" stroke-width="0.3"/>

    <!-- Bottom LONG rail cushions -->
    <polygon points="3.5,50 47,50 45,48 5.5,48" fill="#50a6c2" stroke="#ffffff" stroke-width="0.3"/>
    <polygon points="53,50 96.5,50 94.5,48 55,48" fill="#50a6c2" stroke="#ffffff" stroke-width="0.3"/>
  </g>

  <!-- ============================================ -->
  <!-- LAYER 6: PLAYING SURFACE INNER BOUNDARY     -->
  <!-- ============================================ -->
  <!-- The actual playing area where balls travel (inside cushion noses) -->
  <g id="layer-playing-area" class="playing-area" visibility="hidden">
    <rect x="2" y="2" width="96" height="46" fill="none" stroke="#ffffff" stroke-width="0.1" opacity="0.3"/>
  </g>

  <!-- ============================================ -->
  <!-- LAYER 6: DIAMONDS / SIGHTS                  -->
  <!-- ============================================ -->
  <g id="layer-diamonds" class="table-diamonds">
    <!--
      Diamond positions (from cushion nose):
      - Long rails (top/bottom): 7 diamonds at x = 12.5, 25, 37.5, 62.5, 75, 87.5
        (skipping x=50 where side pocket is)
      - Short rails (left/right): 3 diamonds at y = 12.5, 25, 37.5
    -->

    <!-- Top LONG rail diamonds (skip x=50 for side pocket) -->
    <g id="diamonds-top">
      <polygon points="12.5,-3 13,-3.5 13.5,-3 13,-2.5" fill="#f5f5dc" stroke="#b5a642" stroke-width="0.1"/>
      <polygon points="25,-3 25.5,-3.5 26,-3 25.5,-2.5" fill="#f5f5dc" stroke="#b5a642" stroke-width="0.1"/>
      <polygon points="37.5,-3 38,-3.5 38.5,-3 38,-2.5" fill="#f5f5dc" stroke="#b5a642" stroke-width="0.1"/>
      <!-- x=50 skipped - side pocket -->
      <polygon points="62.5,-3 63,-3.5 63.5,-3 63,-2.5" fill="#f5f5dc" stroke="#b5a642" stroke-width="0.1"/>
      <polygon points="75,-3 75.5,-3.5 76,-3 75.5,-2.5" fill="#f5f5dc" stroke="#b5a642" stroke-width="0.1"/>
      <polygon points="87.5,-3 88,-3.5 88.5,-3 88,-2.5" fill="#f5f5dc" stroke="#b5a642" stroke-width="0.1"/>
    </g>

    <!-- Bottom LONG rail diamonds -->
    <g id="diamonds-bottom">
      <polygon points="12.5,53 13,52.5 13.5,53 13,53.5" fill="#f5f5dc" stroke="#b5a642" stroke-width="0.1"/>
      <polygon points="25,53 25.5,52.5 26,53 25.5,53.5" fill="#f5f5dc" stroke="#b5a642" stroke-width="0.1"/>
      <polygon points="37.5,53 38,52.5 38.5,53 38,53.5" fill="#f5f5dc" stroke="#b5a642" stroke-width="0.1"/>
      <!-- x=50 skipped - side pocket -->
      <polygon points="62.5,53 63,52.5 63.5,53 63,53.5" fill="#f5f5dc" stroke="#b5a642" stroke-width="0.1"/>
      <polygon points="75,53 75.5,52.5 76,53 75.5,53.5" fill="#f5f5dc" stroke="#b5a642" stroke-width="0.1"/>
      <polygon points="87.5,53 88,52.5 88.5,53 88,53.5" fill="#f5f5dc" stroke="#b5a642" stroke-width="0.1"/>
    </g>

    <!-- HEAD (LEFT) short rail diamonds: y = 12.5, 25, 37.5 -->
    <g id="diamonds-head">
      <polygon points="-3,12.5 -3.5,13 -3,13.5 -2.5,13" fill="#f5f5dc" stroke="#b5a642" stroke-width="0.1"/>
      <polygon points="-3,25 -3.5,25.5 -3,26 -2.5,25.5" fill="#f5f5dc" stroke="#b5a642" stroke-width="0.1"/>
      <polygon points="-3,37.5 -3.5,38 -3,38.5 -2.5,38" fill="#f5f5dc" stroke="#b5a642" stroke-width="0.1"/>
    </g>

    <!-- FOOT (RIGHT) short rail diamonds: y = 12.5, 25, 37.5 -->
    <g id="diamonds-foot">
      <polygon points="103,12.5 102.5,13 103,13.5 103.5,13" fill="#f5f5dc" stroke="#b5a642" stroke-width="0.1"/>
      <polygon points="103,25 102.5,25.5 103,26 103.5,25.5" fill="#f5f5dc" stroke="#b5a642" stroke-width="0.1"/>
      <polygon points="103,37.5 102.5,38 103,38.5 103.5,38" fill="#f5f5dc" stroke="#b5a642" stroke-width="0.1"/>
    </g>
  </g>

  <!-- ============================================ -->
  <!-- LAYER 7: STRINGS (Reference Lines)          -->
  <!-- ============================================ -->
  <g id="layer-strings" class="table-strings" opacity="0.4" visibility="hidden">
    <!--
      CORRECTED STRING ORIENTATIONS:
      - Head String: VERTICAL at x=25 (parallel to HEAD rail, 2 diamonds in)
      - Foot String: VERTICAL at x=75 (parallel to FOOT rail, 2 diamonds in)
      - Long String: HORIZONTAL at y=25 (runs length of table through all spots)
      - Center String: VERTICAL at x=50 (connects side pockets)
    -->

    <!-- Head String - VERTICAL at x=25 (kitchen line) -->
    <line
      id="head-string"
      x1="25" y1="2" x2="25" y2="48"
      stroke="#ffffff"
      stroke-width="0.2"
      stroke-dasharray="1,1"
    />

    <!-- Foot String - VERTICAL at x=75 -->
    <line
      id="foot-string"
      x1="75" y1="2" x2="75" y2="48"
      stroke="#ffffff"
      stroke-width="0.2"
      stroke-dasharray="1,1"
    />

    <!-- Long String - HORIZONTAL at y=25 (center line running length of table) -->
    <line
      id="long-string"
      x1="2" y1="25" x2="98" y2="25"
      stroke="#ffffff"
      stroke-width="0.2"
      stroke-dasharray="1,1"
    />

    <!-- Center String - VERTICAL at x=50 (connects side pockets) -->
    <line
      id="center-string"
      x1="50" y1="2" x2="50" y2="48"
      stroke="#ffffff"
      stroke-width="0.2"
      stroke-dasharray="1,1"
    />
  </g>

  <!-- ============================================ -->
  <!-- LAYER 8: SPOTS                              -->
  <!-- ============================================ -->
  <g id="layer-spots" class="table-spots">
    <!--
      SPOT POSITIONS (at diamond intersections):
      - Head Spot: x=25 (2 diamonds from HEAD), y=25 (center width)
      - Center Spot: x=50, y=25 (exact center)
      - Foot Spot: x=75 (2 diamonds from FOOT), y=25 (center width)

      Style: Traditional target - black circle with white center dot
    -->

    <!-- Head Spot - at (25, 25) - intersection of head string and long string -->
    <g id="head-spot">
      <circle cx="25" cy="25" r="0.8" fill="#1a1a1a"/>
      <circle cx="25" cy="25" r="0.25" fill="#ffffff"/>
    </g>

    <!-- Center Spot - at (50, 25) - intersection of center string and long string -->
    <g id="center-spot">
      <circle cx="50" cy="25" r="0.6" fill="#1a1a1a"/>
      <circle cx="50" cy="25" r="0.2" fill="#ffffff"/>
    </g>

    <!-- Foot Spot - at (75, 25) - WHERE BALLS ARE RACKED -->
    <g id="foot-spot">
      <circle cx="75" cy="25" r="0.8" fill="#1a1a1a"/>
      <circle cx="75" cy="25" r="0.25" fill="#ffffff"/>
    </g>
  </g>

  <!-- ============================================ -->
  <!-- LAYER 9: CHALK GRID (4x8 reference grid)    -->
  <!-- ============================================ -->
  <g id="layer-grid" class="table-grid" opacity="0.3" visibility="visible">
    <!--
      4x8 GRID of PERFECT SQUARES (12.5 x 12.5 units each)
      Aligned to diamond positions on rails.
      Grid exists only inside cushion noses (playing surface).

      - VERTICAL lines at x = 12.5, 25, 37.5, 50, 62.5, 75, 87.5 (7 lines, 8 columns)
      - HORIZONTAL lines at y = 12.5, 25, 37.5 (3 lines, 4 rows)
    -->

    <!-- Vertical grid lines (from top cushion nose to bottom cushion nose) -->
    <line x1="12.5" y1="2" x2="12.5" y2="48" stroke="#ffffff" stroke-width="0.15"/>
    <line x1="25" y1="2" x2="25" y2="48" stroke="#ffffff" stroke-width="0.15"/>
    <line x1="37.5" y1="2" x2="37.5" y2="48" stroke="#ffffff" stroke-width="0.15"/>
    <line x1="50" y1="2" x2="50" y2="48" stroke="#ffffff" stroke-width="0.15"/>
    <line x1="62.5" y1="2" x2="62.5" y2="48" stroke="#ffffff" stroke-width="0.15"/>
    <line x1="75" y1="2" x2="75" y2="48" stroke="#ffffff" stroke-width="0.15"/>
    <line x1="87.5" y1="2" x2="87.5" y2="48" stroke="#ffffff" stroke-width="0.15"/>

    <!-- Horizontal grid lines (from left cushion nose to right cushion nose) -->
    <line x1="2" y1="12.5" x2="98" y2="12.5" stroke="#ffffff" stroke-width="0.15"/>
    <line x1="2" y1="25" x2="98" y2="25" stroke="#ffffff" stroke-width="0.15"/>
    <line x1="2" y1="37.5" x2="98" y2="37.5" stroke="#ffffff" stroke-width="0.15"/>
  </g>

  <!-- ============================================ -->
  <!-- LAYER 10: RACK TRIANGLE OUTLINE             -->
  <!-- (For straight pool - optional)              -->
  <!-- ============================================ -->
  <g id="layer-triangle" class="table-triangle" visibility="hidden">
    <!--
      Triangle for 15-ball rack:
      - Apex at FOOT SPOT (75, 25)
      - Opens toward FOOT rail (right)
      - Standard triangle: ~11.5" per side for 2.25" balls
    -->
    <polygon
      points="75,25 85,19.25 85,30.75"
      fill="none"
      stroke="#ffffff"
      stroke-width="0.2"
      opacity="0.5"
    />
    <!-- Line from foot spot to foot rail center -->
    <line
      x1="75" y1="25" x2="98" y2="25"
      stroke="#ffffff"
      stroke-width="0.15"
      opacity="0.5"
    />
  </g>

  <!-- ============================================ -->
  <!-- LAYER 11: OBJECT BALLS                      -->
  <!-- ============================================ -->
  <g id="layer-balls-object" class="balls-object">
    <!-- Balls positioned as needed for diagrams -->
  </g>

  <!-- ============================================ -->
  <!-- LAYER 12: CUE BALL                          -->
  <!-- ============================================ -->
  <g id="layer-ball-cue" class="ball-cue">
    <!-- Cue ball positioned as needed -->
  </g>

  <!-- ============================================ -->
  <!-- LAYER 13: SHOT PATHS                        -->
  <!-- ============================================ -->
  <g id="layer-shot-paths" class="shot-paths">
    <!-- Shot lines, arrows, paths -->
  </g>

  <!-- ============================================ -->
  <!-- LAYER 14: ANNOTATIONS                       -->
  <!-- ============================================ -->
  <g id="layer-annotations" class="annotations">
    <!-- Labels, measurements, notes -->
  </g>

  <!-- ============================================ -->
  <!-- LABELS LAYER (for reference/documentation)  -->
  <!-- ============================================ -->
  <g id="layer-labels" class="labels" font-family="Arial, sans-serif">
    <style>
      .label-box { fill: #ffff00; stroke: #000; stroke-width: 0.2; }
      .label-text { fill: #000; font-size: 2px; font-weight: bold; }
      .label-num { fill: #ff0000; font-size: 2.5px; font-weight: bold; }
      .label-line { stroke: #ff0000; stroke-width: 0.15; }
      .label-circle { fill: none; stroke: #ff0000; stroke-width: 0.3; }
    </style>

    <!-- ========== LAYER 1: OUTER FRAME ========== -->
    <g id="label-L1">
      <rect x="-7" y="-7" width="12" height="3" class="label-box"/>
      <text x="-6.5" y="-5" class="label-num">1</text>
      <text x="-4" y="-5" class="label-text">OUTER FRAME</text>
    </g>

    <!-- ========== LAYER 2: RAILS ========== -->
    <g id="label-L2-head">
      <line x1="-3" y1="20" x2="-8" y2="15" class="label-line"/>
      <rect x="-14" y="12" width="8" height="3" class="label-box"/>
      <text x="-13.5" y="14" class="label-num">2</text>
      <text x="-11" y="14" class="label-text">HEAD RAIL</text>
    </g>
    <g id="label-L2-foot">
      <line x1="103" y1="20" x2="108" y2="15" class="label-line"/>
      <rect x="106" y="12" width="8" height="3" class="label-box"/>
      <text x="106.5" y="14" class="label-num">2</text>
      <text x="109" y="14" class="label-text">FOOT RAIL</text>
    </g>

    <!-- ========== LAYER 3: POCKET VOIDS ========== -->
    <g id="label-L3">
      <circle cx="0" cy="0" r="5" class="label-circle"/>
      <line x1="3" y1="3" x2="10" y2="10" class="label-line"/>
      <rect x="10" y="8" width="12" height="3" class="label-box"/>
      <text x="10.5" y="10" class="label-num">3</text>
      <text x="13" y="10" class="label-text">POCKET VOID</text>
    </g>

    <!-- ========== LAYER 4: SLATE/CLOTH ========== -->
    <g id="label-L4">
      <rect x="40" y="20" width="20" height="3" class="label-box"/>
      <text x="40.5" y="22" class="label-num">4</text>
      <text x="43" y="22" class="label-text">SLATE/CLOTH (Tournament Blue)</text>
    </g>

    <!-- ========== LAYER 5: CUSHIONS ========== -->
    <g id="label-L5-head">
      <line x1="1" y1="30" x2="8" y2="30" class="label-line"/>
      <rect x="8" y="28.5" width="14" height="3" class="label-box"/>
      <text x="8.5" y="30.5" class="label-num">5</text>
      <text x="11" y="30.5" class="label-text">CUSHION (white outline)</text>
    </g>

    <!-- ========== LAYER 6: DIAMONDS ========== -->
    <g id="label-L6">
      <line x1="25" y1="-3" x2="25" y2="-6" class="label-line"/>
      <rect x="18" y="-9" width="10" height="2.5" class="label-box"/>
      <text x="18.5" y="-7" class="label-num">6</text>
      <text x="21" y="-7" class="label-text">DIAMONDS</text>
    </g>

    <!-- ========== LAYER 8: SPOTS (target-style) ========== -->
    <g id="label-L8-head">
      <circle cx="25" cy="25" r="2" class="label-circle"/>
      <line x1="25" y1="27" x2="25" y2="33" class="label-line"/>
      <rect x="17" y="33" width="16" height="3" class="label-box"/>
      <text x="17.5" y="35" class="label-num">8</text>
      <text x="20" y="35" class="label-text">HEAD SPOT (target)</text>
    </g>
    <g id="label-L8-foot">
      <circle cx="75" cy="25" r="2" class="label-circle"/>
      <line x1="75" y1="27" x2="75" y2="33" class="label-line"/>
      <rect x="67" y="33" width="16" height="3" class="label-box"/>
      <text x="67.5" y="35" class="label-num">8</text>
      <text x="70" y="35" class="label-text">FOOT SPOT (target)</text>
    </g>
    <g id="label-L8-center">
      <circle cx="50" cy="25" r="2" class="label-circle"/>
      <line x1="50" y1="23" x2="50" y2="17" class="label-line"/>
      <rect x="42" y="14" width="16" height="3" class="label-box"/>
      <text x="42.5" y="16" class="label-num">8</text>
      <text x="45" y="16" class="label-text">CENTER SPOT</text>
    </g>

    <!-- ========== LAYER 9: GRID ========== -->
    <g id="label-L9">
      <rect x="80" y="38" width="16" height="3" class="label-box"/>
      <text x="80.5" y="40" class="label-num">9</text>
      <text x="83" y="40" class="label-text">GRID (4x8 squares)</text>
    </g>

    <!-- ========== ORIENTATION LABELS ========== -->
    <g id="orientation-labels" font-size="3" fill="#0066cc" font-weight="bold">
      <text x="-5" y="27" text-anchor="middle">HEAD</text>
      <text x="-5" y="30" text-anchor="middle" font-size="2">(break)</text>
      <text x="105" y="27" text-anchor="middle">FOOT</text>
      <text x="105" y="30" text-anchor="middle" font-size="2">(rack)</text>
    </g>

    <!-- ========== COORDINATE REFERENCE ========== -->
    <g id="coord-ref" font-size="1.8" fill="#333">
      <text x="1" y="-1">x=0</text>
      <text x="48" y="-1">x=50</text>
      <text x="95" y="-1">x=100</text>
      <text x="-2" y="4" text-anchor="end">y=0</text>
      <text x="-2" y="26" text-anchor="end">y=25</text>
      <text x="-2" y="49" text-anchor="end">y=50</text>
    </g>

    <!-- ========== v008 FEATURE CALLOUTS ========== -->
    <g id="v008-features" font-size="1.5" fill="#666">
      <text x="50" y="57" text-anchor="middle">v008: Tournament Blue #50a6c2 | White cushion outlines | Target-style spots | 4x8 diamond grid</text>
    </g>
  </g>

</svg>
